<svg width="80" height="80" viewBox="0 0 80 80" fill="none" xmlns="http://www.w3.org/2000/svg">
<g id="Frame">
<path id="Vector" d="M67.5 5H12.5C8.35938 5 5 8.35938 5 12.5V67.5C5 71.6406 8.35938 75 12.5 75H67.5C71.6406 75 75 71.6406 75 67.5V12.5C75 8.35938 71.6406 5 67.5 5ZM48.3281 64.9531C47.0156 65.1875 46.5312 64.375 46.5312 63.7031C46.5312 62.8594 46.5625 58.5469 46.5625 55.0625C46.5625 52.625 45.75 51.0781 44.7969 50.2656C50.5781 49.625 56.6719 48.8281 56.6719 38.8438C56.6719 36 55.6562 34.5781 54 32.75C54.2656 32.0781 55.1562 29.3125 53.7344 25.7188C51.5625 25.0469 46.5938 28.5156 46.5938 28.5156C44.5313 27.9375 42.2969 27.6406 40.0938 27.6406C37.8906 27.6406 35.6562 27.9375 33.5938 28.5156C33.5938 28.5156 28.625 25.0469 26.4531 25.7188C25.0312 29.2969 25.9063 32.0625 26.1875 32.75C24.5312 34.5781 23.75 36 23.75 38.8438C23.75 48.7812 29.5781 49.625 35.3594 50.2656C34.6094 50.9375 33.9375 52.0938 33.7031 53.75C32.2188 54.4219 28.4219 55.5781 26.1562 51.5781C24.7344 49.1094 22.1719 48.9062 22.1719 48.9062C19.6406 48.875 22 50.5 22 50.5C23.6875 51.2812 24.875 54.2812 24.875 54.2812C26.3906 58.9219 33.6406 57.3594 33.6406 57.3594C33.6406 59.5312 33.6719 63.0625 33.6719 63.7031C33.6719 64.375 33.2031 65.1875 31.875 64.9531C21.5625 61.5 14.3438 51.6875 14.3438 40.2188C14.3438 25.875 25.3125 14.9844 39.6562 14.9844C54 14.9844 65.625 25.875 65.625 40.2188C65.6406 51.6875 58.6406 61.5156 48.3281 64.9531ZM33 55.4062C32.7031 55.4688 32.4219 55.3438 32.3906 55.1406C32.3594 54.9062 32.5625 54.7031 32.8594 54.6406C33.1562 54.6094 33.4375 54.7344 33.4688 54.9375C33.5156 55.1406 33.3125 55.3438 33 55.4062ZM31.5156 55.2656C31.5156 55.4688 31.2812 55.6406 30.9688 55.6406C30.625 55.6719 30.3906 55.5 30.3906 55.2656C30.3906 55.0625 30.625 54.8906 30.9375 54.8906C31.2344 54.8594 31.5156 55.0312 31.5156 55.2656ZM29.375 55.0938C29.3125 55.2969 29 55.3906 28.7344 55.2969C28.4375 55.2344 28.2344 55 28.2969 54.7969C28.3594 54.5938 28.6719 54.5 28.9375 54.5625C29.25 54.6563 29.4531 54.8906 29.375 55.0938ZM27.4531 54.25C27.3125 54.4219 27.0156 54.3906 26.7812 54.1562C26.5469 53.9531 26.4844 53.6562 26.6406 53.5156C26.7812 53.3438 27.0781 53.375 27.3125 53.6094C27.5156 53.8125 27.5938 54.125 27.4531 54.25ZM26.0312 52.8281C25.8906 52.9219 25.625 52.8281 25.4531 52.5938C25.2812 52.3594 25.2812 52.0938 25.4531 51.9844C25.625 51.8438 25.8906 51.9531 26.0312 52.1875C26.2031 52.4219 26.2031 52.7031 26.0312 52.8281ZM25.0156 51.3125C24.875 51.4531 24.6406 51.375 24.4688 51.2188C24.2969 51.0156 24.2656 50.7812 24.4062 50.6719C24.5469 50.5312 24.7812 50.6094 24.9531 50.7656C25.125 50.9688 25.1562 51.2031 25.0156 51.3125ZM23.9688 50.1562C23.9062 50.2969 23.7031 50.3281 23.5312 50.2188C23.3281 50.125 23.2344 49.9531 23.2969 49.8125C23.3594 49.7187 23.5312 49.6719 23.7344 49.75C23.9375 49.8594 24.0312 50.0312 23.9688 50.1562Z" fill="#0696E7"/>
</g>
</svg>
